#define _width 8
#define _height 8
static char _bits[] = {
 0xff,0xff,0xc3,0xdb,0xdb,0xc3,0xff,0xff };
